HIERARCHY
ROOT joint_Root
{
	OFFSET 0.0 0.0 0.0
	CHANNELS 6 Xposition Yposition Zposition Zrotation Xrotation Yrotation 
	JOINT Hips
	{
		OFFSET 4.5925 91.4895 -427.239
		CHANNELS 6 Xposition Yposition Zposition Zrotation Xrotation Yrotation 
		JOINT Spine
		{
			OFFSET 15.7357 0.0 0.0
			CHANNELS 6 Xposition Yposition Zposition Zrotation Xrotation Yrotation 
			JOINT Chest
			{
				OFFSET 8.98455 -0.406207 0.0
				CHANNELS 6 Xposition Yposition Zposition Zrotation Xrotation Yrotation 
				JOINT Neck
				{
					OFFSET 16.3773 0.0 0.0
					CHANNELS 6 Xposition Yposition Zposition Zrotation Xrotation Yrotation 
					JOINT Head
					{
						OFFSET 6.45672 0.0 0.0
						CHANNELS 6 Xposition Yposition Zposition Zrotation Xrotation Yrotation 
						End Site
						{
							OFFSET 0.0 0.0 0.0
						}
					}
				}
				JOINT Shoulder_L
				{
					OFFSET 12.9942 -0.242716 4.98039
					CHANNELS 6 Xposition Yposition Zposition Zrotation Xrotation Yrotation 
					JOINT UpperArm_L
					{
						OFFSET 5.34809 0.0 0.0
						CHANNELS 6 Xposition Yposition Zposition Zrotation Xrotation Yrotation 
						JOINT LowerArm_L
						{
							OFFSET 24.3286 1.87007e-05 0.0
							CHANNELS 6 Xposition Yposition Zposition Zrotation Xrotation Yrotation 
							JOINT Hand_L
							{
								OFFSET 22.2916 0.0 0.0
								CHANNELS 6 Xposition Yposition Zposition Zrotation Xrotation Yrotation 
								End Site
								{
									OFFSET 0.0 0.0 0.0
								}
							}
						}
					}
				}
				JOINT Shoulder_R
				{
					OFFSET 12.9945 -0.242716 -4.98039
					CHANNELS 6 Xposition Yposition Zposition Zrotation Xrotation Yrotation 
					JOINT UpperArm_R
					{
						OFFSET -5.34813 0.0 0.0
						CHANNELS 6 Xposition Yposition Zposition Zrotation Xrotation Yrotation 
						JOINT LowerArm_R
						{
							OFFSET -24.3289 0.000322201 0.0
							CHANNELS 6 Xposition Yposition Zposition Zrotation Xrotation Yrotation 
							JOINT Hand_R
							{
								OFFSET -22.2915 -0.000108084 0.0
								CHANNELS 6 Xposition Yposition Zposition Zrotation Xrotation Yrotation 
								End Site
								{
									OFFSET 0.0 0.0 0.0
								}
							}
						}
					}
				}
			}
		}
		JOINT UpperLeg_L
		{
			OFFSET -2.19248 -6.46944 0.0
			CHANNELS 6 Xposition Yposition Zposition Zrotation Xrotation Yrotation 
			JOINT LowerLeg_L
			{
				OFFSET 39.0811 0.0 -1.23785e-05
				CHANNELS 6 Xposition Yposition Zposition Zrotation Xrotation Yrotation 
				JOINT Foot_L
				{
					OFFSET 40.9854 0.0 -1.26872e-05
					CHANNELS 6 Xposition Yposition Zposition Zrotation Xrotation Yrotation 
					JOINT Toes_L
					{
						OFFSET 11.7543 0.0 0.0
						CHANNELS 6 Xposition Yposition Zposition Zrotation Xrotation Yrotation 
						End Site
						{
							OFFSET 0.0 0.0 0.0
						}
					}
				}
			}
		}
		JOINT UpperLeg_R
		{
			OFFSET -2.19251 6.46944 0.0
			CHANNELS 6 Xposition Yposition Zposition Zrotation Xrotation Yrotation 
			JOINT LowerLeg_R
			{
				OFFSET -39.0811 -0.00228153 -0.0401928
				CHANNELS 6 Xposition Yposition Zposition Zrotation Xrotation Yrotation 
				JOINT Foot_R
				{
					OFFSET -40.9854 0.0 0.0
					CHANNELS 6 Xposition Yposition Zposition Zrotation Xrotation Yrotation 
					JOINT Toes_R
					{
						OFFSET -11.7543 0.0 0.0
						CHANNELS 6 Xposition Yposition Zposition Zrotation Xrotation Yrotation 
						End Site
						{
							OFFSET 0.0 0.0 0.0
						}
					}
				}
			}
		}
	}
}
MOTION
Frames:	6
Frame Time:	0.0333333
0.000000 0.000000 0.000000 0.000000 0.000000 -0.000000 -1.428130 82.022400 -1.708000 89.557800 -6.104160 10.834600 15.735700 0.000005 -0.000001 85.910600 80.807700 -85.252700 8.984550 -0.406207 -0.000000 10.581400 -1.285790 1.434180 16.377300 -0.000001 -0.000001 -1.853690 -3.808960 1.795440 6.456720 -0.000001 -0.000000 -1.909710 -3.451740 4.942610 12.994200 -0.242716 4.980390 -91.568600 6.002630 -75.326000 5.348090 -0.000007 -0.000001 -66.861600 15.199500 -11.007000 24.328600 0.000019 0.000005 9.874760 17.513600 -30.056400 22.291600 -0.000001 0.000005 10.573300 5.383910 -2.430460 12.994500 -0.242716 -4.980390 88.385700 9.109790 -79.906900 -5.348130 -0.000001 -0.000004 -59.776000 32.647100 -8.919730 -24.328900 0.000322 -0.000009 1.751310 3.013550 -30.218300 -22.291500 -0.000108 -0.000004 19.151200 5.462310 -5.083290 -2.192480 -6.469440 -0.000000 -172.426000 -15.919300 -14.966100 39.081100 -0.000007 -0.000012 -0.438739 0.228321 62.508400 40.985400 -0.000006 -0.000013 1.759540 7.026210 -85.894100 11.754300 -0.000000 0.000003 -0.000440 -0.003579 -16.709100 -2.192510 6.469440 -0.000001 176.777000 11.824900 163.885000 -39.081100 -0.002282 -0.040193 0.075808 -0.036785 63.138800 -40.985400 0.000008 0.000006 7.863140 5.472350 -86.116300 -11.754300 -0.000006 -0.000006 -0.882830 -1.094930 -16.708800
0.000000 0.000000 0.000000 0.000000 0.000000 -0.000000 -1.270670 83.531500 -1.204320 90.097500 -6.100010 10.597800 15.735700 0.000005 -0.000001 84.241800 81.367900 -82.894000 8.984550 -0.406207 -0.000000 9.435730 -1.702660 2.834140 16.377300 -0.000001 -0.000001 -0.634583 -3.887500 1.526750 6.456720 -0.000001 -0.000000 -1.261790 -3.082330 3.266180 12.994200 -0.242716 4.980390 -91.459600 5.239560 -74.407600 5.348090 -0.000007 -0.000001 -63.543000 12.919300 -13.824200 24.328600 0.000019 0.000005 10.784000 15.420100 -35.614100 22.291600 -0.000001 0.000005 11.511100 5.396780 -2.833260 12.994500 -0.242716 -4.980390 88.212000 9.051610 -78.777100 -5.348130 -0.000001 -0.000004 -61.066800 29.923300 -7.311590 -24.328900 0.000322 -0.000009 1.848520 3.563980 -27.446900 -22.291500 -0.000108 -0.000004 19.691300 5.445990 -4.497380 -2.192480 -6.469440 -0.000000 -173.238000 -15.900500 -12.640500 39.081100 -0.000007 -0.000012 -0.411202 0.257487 57.947000 40.985400 -0.000006 -0.000013 1.561210 6.876900 -83.988400 11.754300 -0.000000 0.000003 -0.000389 -0.003229 -16.696800 -2.192510 6.469440 -0.000001 176.047000 11.767700 166.019000 -39.081100 -0.002282 -0.040193 0.065343 -0.037394 58.960100 -40.985400 0.000008 0.000006 7.502650 5.941660 -84.345400 -11.754300 -0.000006 -0.000006 -0.876220 -1.086260 -16.724300
0.000000 0.000000 0.000000 0.000000 0.000000 -0.000000 -1.118340 85.721500 -0.616732 90.910600 -5.965870 10.613600 15.735700 0.000005 -0.000001 84.229500 82.010700 -82.286300 8.984550 -0.406207 -0.000000 8.164040 -1.592670 3.996570 16.377300 -0.000001 -0.000001 1.349720 -4.065580 1.100170 6.456720 -0.000001 -0.000000 -0.511339 -3.237200 1.355580 12.994200 -0.242716 4.980390 -91.052200 3.557870 -73.510200 5.348090 -0.000007 -0.000001 -57.436700 7.993340 -21.633300 24.328600 0.000019 0.000005 11.789400 14.596100 -39.634600 22.291600 -0.000001 0.000005 11.347100 5.408410 -3.213000 12.994500 -0.242716 -4.980390 88.084400 8.805370 -77.675000 -5.348130 -0.000001 -0.000004 -62.377500 26.847400 -4.170760 -24.328900 0.000322 -0.000009 0.720742 1.476740 -26.044400 -22.291500 -0.000108 -0.000004 20.099500 5.448820 -4.597550 -2.192480 -6.469440 -0.000000 -174.267000 -15.850600 -8.685050 39.081100 -0.000007 -0.000012 -0.350077 0.286895 50.665500 40.985400 -0.000006 -0.000013 1.288070 6.902900 -80.766700 11.754300 -0.000000 0.000003 -0.000289 -0.002524 -16.671700 -2.192510 6.469440 -0.000001 174.781000 12.378800 169.698000 -39.081100 -0.002282 -0.040193 0.052103 -0.037663 52.376100 -40.985400 0.000008 0.000006 7.251500 7.102390 -81.513500 -11.754300 -0.000006 -0.000006 -0.706171 -0.870149 -16.860900
0.000000 0.000000 0.000000 0.000000 0.000000 -0.000000 -1.127260 87.870100 -0.257145 91.194300 -5.294420 9.687280 15.735700 0.000005 -0.000001 83.642400 83.007000 -81.036700 8.984550 -0.406207 -0.000000 6.177180 -1.580410 5.291240 16.377300 -0.000001 -0.000001 3.563420 -4.399580 0.806654 6.456720 -0.000001 -0.000000 0.545322 -3.463810 -0.212828 12.994200 -0.242716 4.980390 -90.513600 1.695130 -73.145000 5.348090 -0.000007 -0.000001 -50.492100 -1.583010 -32.143900 24.328600 0.000019 0.000005 9.785330 11.157900 -41.715800 22.291600 -0.000001 0.000005 11.988900 5.390110 -2.624260 12.994500 -0.242716 -4.980390 88.063000 8.084550 -76.477400 -5.348130 -0.000001 -0.000004 -62.968000 25.572900 -1.240380 -24.328900 0.000322 -0.000009 -0.045238 -0.094355 -25.107400 -22.291500 -0.000108 -0.000004 19.154300 5.453230 -4.753590 -2.192480 -6.469440 -0.000000 -174.932000 -15.701000 -5.620140 39.081100 -0.000007 -0.000012 -0.257629 0.278549 42.766200 40.985400 -0.000006 -0.000013 0.994922 7.315100 -76.949800 11.754300 -0.000000 0.000003 -0.000200 -0.001851 -16.647400 -2.192510 6.469440 -0.000001 174.130000 14.399800 172.823000 -39.081100 -0.002282 -0.040193 0.040972 -0.037724 44.987200 -40.985400 0.000008 0.000006 7.234650 8.872670 -78.122700 -11.754300 -0.000006 -0.000006 -0.574363 -0.705549 -17.051300
0.000000 0.000000 0.000000 0.000000 0.000000 -0.000000 -1.319690 89.509200 -0.018170 91.149900 -4.591140 8.442440 15.735700 0.000005 -0.000001 81.472000 84.029200 -78.343100 8.984550 -0.406207 -0.000000 4.104090 -1.867970 6.318260 16.377300 -0.000001 -0.000001 5.289600 -4.685560 0.773236 6.456720 -0.000001 -0.000000 1.575190 -3.344440 -0.872050 12.994200 -0.242716 4.980390 -89.810600 -0.659042 -73.936400 5.348090 -0.000007 -0.000001 -45.038100 -15.772200 -42.126800 24.328600 0.000019 0.000005 4.914000 5.271050 -43.119500 22.291600 -0.000001 0.000005 13.983500 5.378890 -2.264560 12.994500 -0.242716 -4.980390 88.038900 7.452400 -75.211100 -5.348130 -0.000001 -0.000004 -62.433500 26.467600 0.751774 -24.328900 0.000322 -0.000009 0.407548 0.898483 -24.459700 -22.291500 -0.000108 -0.000004 17.262300 5.450570 -4.654190 -2.192480 -6.469440 -0.000000 -174.909000 -16.373100 -3.301470 39.081100 -0.000007 -0.000012 -0.156877 0.217663 35.781800 40.985400 -0.000006 -0.000013 0.851693 8.784460 -73.495600 11.754300 -0.000000 0.000003 -0.000122 -0.001220 -16.624200 -2.192510 6.469440 -0.000001 174.118000 16.547900 175.293000 -39.081100 -0.002282 -0.040193 0.030660 -0.034704 38.268700 -40.985400 0.000008 0.000006 7.358220 10.517900 -75.228700 -11.754300 -0.000006 -0.000006 -0.441649 -0.542980 -17.088000
0.000000 0.000000 0.000000 0.000000 0.000000 -0.000000 -1.540150 90.559800 0.076175 91.086400 -4.612570 6.839670 15.735700 0.000005 -0.000001 75.397300 84.842700 -71.966900 8.984550 -0.406207 -0.000000 2.309760 -2.761610 6.911050 16.377300 -0.000001 -0.000001 5.916810 -4.121980 0.735366 6.456720 -0.000001 -0.000000 2.043200 -2.768230 -0.434228 12.994200 -0.242716 4.980390 -88.972000 -3.692450 -74.430400 5.348090 -0.000007 -0.000001 -42.339700 -32.609700 -51.314700 24.328600 0.000019 0.000005 -0.727882 -0.753587 -43.990500 22.291600 -0.000001 0.000005 15.707700 5.391400 -2.655190 12.994500 -0.242716 -4.980390 87.963500 7.508640 -74.777700 -5.348130 -0.000001 -0.000004 -60.384800 28.682300 1.767510 -24.328900 0.000322 -0.000009 1.211200 2.618230 -24.853700 -22.291500 -0.000108 -0.000004 16.198500 5.439460 -4.266570 -2.192480 -6.469440 -0.000000 -174.846000 -17.753500 -2.189250 39.081100 -0.000007 -0.000012 -0.102588 0.173985 30.525400 40.985400 -0.000006 -0.000013 0.637922 10.208000 -70.856200 11.754300 -0.000000 0.000003 -0.000077 -0.000824 -16.609300 -2.192510 6.469440 -0.000001 174.614000 17.640500 176.309000 -39.081100 -0.002282 -0.040193 0.022506 -0.029382 33.177900 -40.985400 0.000008 0.000006 7.429640 11.614400 -73.161400 -11.754300 -0.000006 -0.000006 -0.193354 -0.241542 -17.017900
